# xmcd
#
# Track frame offsets:
#	150
#	7292
#	13101
#	22766
#	36349
#	48928
#	58707
#	83568
#	98060
#	107765
#	122020
#	135469
#	149803
#	163837
#	176669
#	184738
#	191393
#	197324
#	213823
#	226839
#
# Disc length: 3125 seconds
#
# Revision: 2
# Processed by: cddbd v1.4PL0 Copyright (c) Steve Scherf et al.
# Submitted via: audiograbber 1.82.01
#
DISCID=080c3314
DTITLE=Dinah Shore - Blues Legends
DYEAR=1900
DGENRE=
TTITLE0=Cickery Chick
TTITLE1=Beale Street Blues
TTITLE2=Sleighride In July
TTITLE3=Coax Me A Little Bit
TTITLE4=Summertime
TTITLE5=There´ll Be Some Changes Made
TTITLE6=Carousel Medley
TTITLE7=My Romance
TTITLE8=Who´s Sorry Now
TTITLE9=Shoo Fly Pie And Apple Pan Dowdy
TTITLE10=I Can´t Begin To Tell You
TTITLE11=Blues In The Night
TTITLE12=Mood Indigo
TTITLE13=Body And Soul
TTITLE14=Exactly Like You
TTITLE15=Ten Little Fingers
TTITLE16=My Dreams Are Getting Better All The Time
TTITLE17=Love Me Or Leave Me
TTITLE18=Shoo-Shoo Baby
TTITLE19=My Heart - Still
EXTD=
EXTT0=
EXTT1=
EXTT2=
EXTT3=
EXTT4=
EXTT5=
EXTT6=a) What´s The Use Of Wonderin\nb) June Is Bustin´Out All Over\nc) If I Lo
EXTT6=ve You
EXTT7=
EXTT8=
EXTT9=
EXTT10=
EXTT11=
EXTT12=
EXTT13=
EXTT14=
EXTT15=
EXTT16=
EXTT17=
EXTT18=
EXTT19=
PLAYORDER=
